<svg width="30" height="44" viewBox="0 0 30 44" fill="none" xmlns="http://www.w3.org/2000/svg">
<g filter="url(#filter0_dd_11_1897)">
<path d="M3 14C3 7.37258 8.37258 2 15 2C21.6274 2 27 7.37258 27 14C27 20.6274 21.6274 26 15 26C8.37258 26 3 20.6274 3 14Z" fill="#202020"/>
<g clip-path="url(#clip0_11_1897)">
<path d="M18.9775 17.3525L15 21.3299L11.0225 17.3525C8.82582 15.1558 8.82582 11.5942 11.0225 9.39753C13.2192 7.20082 16.7808 7.20082 18.9775 9.39753C21.1742 11.5942 21.1742 15.1558 18.9775 17.3525ZM15 15.875C16.3807 15.875 17.5 14.7557 17.5 13.375C17.5 11.9943 16.3807 10.875 15 10.875C13.6193 10.875 12.5 11.9943 12.5 13.375C12.5 14.7557 13.6193 15.875 15 15.875ZM15 14.625C14.3096 14.625 13.75 14.0654 13.75 13.375C13.75 12.6846 14.3096 12.125 15 12.125C15.6904 12.125 16.25 12.6846 16.25 13.375C16.25 14.0654 15.6904 14.625 15 14.625Z" fill="white"/>
</g>
<path d="M13.5 38C13.5 38.8284 14.1716 39.5 15 39.5C15.8284 39.5 16.5 38.8284 16.5 38H13.5ZM15 26H13.5V38H15H16.5V26H15Z" fill="#202020"/>
</g>
<defs>
<filter id="filter0_dd_11_1897" x="0" y="0" width="30" height="43.5" filterUnits="userSpaceOnUse" color-interpolation-filters="sRGB">
<feFlood flood-opacity="0" result="BackgroundImageFix"/>
<feColorMatrix in="SourceAlpha" type="matrix" values="0 0 0 0 0 0 0 0 0 0 0 0 0 0 0 0 0 0 127 0" result="hardAlpha"/>
<feOffset dy="1"/>
<feGaussianBlur stdDeviation="1.5"/>
<feColorMatrix type="matrix" values="0 0 0 0 0 0 0 0 0 0 0 0 0 0 0 0 0 0 0.1 0"/>
<feBlend mode="normal" in2="BackgroundImageFix" result="effect1_dropShadow_11_1897"/>
<feColorMatrix in="SourceAlpha" type="matrix" values="0 0 0 0 0 0 0 0 0 0 0 0 0 0 0 0 0 0 127 0" result="hardAlpha"/>
<feOffset dy="1"/>
<feGaussianBlur stdDeviation="1"/>
<feColorMatrix type="matrix" values="0 0 0 0 0 0 0 0 0 0 0 0 0 0 0 0 0 0 0.06 0"/>
<feBlend mode="normal" in2="effect1_dropShadow_11_1897" result="effect2_dropShadow_11_1897"/>
<feBlend mode="normal" in="SourceGraphic" in2="effect2_dropShadow_11_1897" result="shape"/>
</filter>
<clipPath id="clip0_11_1897">
<rect width="15" height="15" fill="white" transform="translate(7.5 6.5)"/>
</clipPath>
</defs>
</svg>
